# xmcd
#
# Track frame offsets:
#	150
#	15760
#	31818
#	48975
#	63848
#	82469
#	101049
#	120299
#	138942
#	159605
#	175954
#	193292
#	211397
#	232462
#
# Disc length: 3377 seconds
#
# Revision: 1
# Processed by: cddbd v1.5.2PL0 Copyright (c) Steve Scherf et al.
# Submitted via: audiograbber 1.83.01
#
DISCID=c00d2f0e
DTITLE=Rascal Flatts - Me and My Gang
DYEAR=1900
DGENRE=
TTITLE0=Stand
TTITLE1=What Hurts The Most
TTITLE2=Backwards
TTITLE3=I Feel Bad
TTITLE4=My Wish
TTITLE5=Pieces
TTITLE6=Yes I do
TTITLE7=To Make Her Love Me
TTITLE8=Words I Couldn't Say
TTITLE9=Me and My Gang
TTITLE10=Cool Thing
TTITLE11=Ellsworth
TTITLE12=He Ain't The Leavin Kind
TTITLE13=Life Is a Highway
EXTD=
EXTT0=
EXTT1=
EXTT2=
EXTT3=
EXTT4=
EXTT5=
EXTT6=
EXTT7=
EXTT8=
EXTT9=
EXTT10=
EXTT11=
EXTT12=
EXTT13=
PLAYORDER=
